<svg id="visual" viewBox="0 0 1920 1080" width="1920" height="1080" xmlns="http://www.w3.org/2000/svg" xmlns:xlink="http://www.w3.org/1999/xlink" version="1.1"><rect x="0" y="0" width="1920" height="1080" fill="#ffffff"></rect><path d="M0 740L274 797L549 651L823 703L1097 640L1371 731L1646 742L1920 805L1920 1081L1646 1081L1371 1081L1097 1081L823 1081L549 1081L274 1081L0 1081Z" fill="#1c3057"></path><path d="M0 716L274 748L549 782L823 833L1097 818L1371 759L1646 848L1920 734L1920 1081L1646 1081L1371 1081L1097 1081L823 1081L549 1081L274 1081L0 1081Z" fill="#0a4a6e"></path><path d="M0 897L274 814L549 910L823 888L1097 815L1371 886L1646 826L1920 886L1920 1081L1646 1081L1371 1081L1097 1081L823 1081L549 1081L274 1081L0 1081Z" fill="#00647f"></path><path d="M0 924L274 893L549 972L823 869L1097 886L1371 891L1646 969L1920 911L1920 1081L1646 1081L1371 1081L1097 1081L823 1081L549 1081L274 1081L0 1081Z" fill="#007d84"></path><path d="M0 977L274 955L549 986L823 1030L1097 983L1371 1021L1646 1010L1920 1001L1920 1081L1646 1081L1371 1081L1097 1081L823 1081L549 1081L274 1081L0 1081Z" fill="#009473"></path></svg>