<svg id="visual" viewBox="0 0 1920 1080" width="1920" height="1080" xmlns="http://www.w3.org/2000/svg" xmlns:xlink="http://www.w3.org/1999/xlink" version="1.1"><rect x="0" y="0" width="1920" height="1080" fill="#ffffff"></rect><path d="M0 537L192 554L384 613L576 558L768 586L960 642L1152 488L1344 496L1536 565L1728 562L1920 558L1920 1081L1728 1081L1536 1081L1344 1081L1152 1081L960 1081L768 1081L576 1081L384 1081L192 1081L0 1081Z" fill="#1c3057"></path><path d="M0 562L192 700L384 649L576 678L768 624L960 561L1152 599L1344 649L1536 694L1728 670L1920 721L1920 1081L1728 1081L1536 1081L1344 1081L1152 1081L960 1081L768 1081L576 1081L384 1081L192 1081L0 1081Z" fill="#0f456a"></path><path d="M0 772L192 731L384 743L576 778L768 787L960 731L1152 730L1344 718L1536 682L1728 784L1920 787L1920 1081L1728 1081L1536 1081L1344 1081L1152 1081L960 1081L768 1081L576 1081L384 1081L192 1081L0 1081Z" fill="#005a79"></path><path d="M0 785L192 772L384 778L576 807L768 798L960 789L1152 814L1344 749L1536 792L1728 803L1920 861L1920 1081L1728 1081L1536 1081L1344 1081L1152 1081L960 1081L768 1081L576 1081L384 1081L192 1081L0 1081Z" fill="#006e84"></path><path d="M0 920L192 884L384 882L576 861L768 898L960 918L1152 882L1344 853L1536 844L1728 913L1920 907L1920 1081L1728 1081L1536 1081L1344 1081L1152 1081L960 1081L768 1081L576 1081L384 1081L192 1081L0 1081Z" fill="#008282"></path><path d="M0 952L192 936L384 1009L576 948L768 1005L960 1014L1152 969L1344 939L1536 1000L1728 1006L1920 997L1920 1081L1728 1081L1536 1081L1344 1081L1152 1081L960 1081L768 1081L576 1081L384 1081L192 1081L0 1081Z" fill="#009473"></path></svg>